<mxfile host="app.diagrams.net" modified="2023-10-16T08:35:04.264Z" agent="Mozilla/5.0 (Windows NT 10.0; Win64; x64) AppleWebKit/537.36 (KHTML, like Gecko) Chrome/117.0.0.0 Safari/537.36" version="22.0.4" etag="Oe4WLW9megxOlilf7Q2K" type="device">
  <diagram id="2mnI9lBxOz8fttfoecNu" name="第 1 页">
    <mxGraphModel dx="836" dy="1698" grid="1" gridSize="10" guides="1" tooltips="1" connect="1" arrows="1" fold="1" page="1" pageScale="1" pageWidth="827" pageHeight="1169" math="0" shadow="0">
      <root>
        <mxCell id="0" />
        <mxCell id="1" parent="0" />
        <mxCell id="gmaqWhd-WiNgRrMq-LPP-3" value="" style="rounded=0;whiteSpace=wrap;html=1;container=0;" vertex="1" parent="1">
          <mxGeometry x="40" y="40" width="360" height="360" as="geometry" />
        </mxCell>
        <mxCell id="gmaqWhd-WiNgRrMq-LPP-4" value="" style="rounded=0;whiteSpace=wrap;html=1;container=0;" vertex="1" parent="1">
          <mxGeometry x="40" y="40" width="360" height="48" as="geometry" />
        </mxCell>
        <mxCell id="gmaqWhd-WiNgRrMq-LPP-10" value="LINE貼圖" style="rounded=0;whiteSpace=wrap;html=1;container=0;" vertex="1" parent="1">
          <mxGeometry x="310" y="40" width="90" height="48" as="geometry" />
        </mxCell>
        <mxCell id="gmaqWhd-WiNgRrMq-LPP-11" value="影片" style="rounded=0;whiteSpace=wrap;html=1;container=0;" vertex="1" parent="1">
          <mxGeometry x="220" y="40" width="90" height="48" as="geometry" />
        </mxCell>
        <mxCell id="gmaqWhd-WiNgRrMq-LPP-12" value="四格漫畫" style="rounded=0;whiteSpace=wrap;html=1;container=0;" vertex="1" parent="1">
          <mxGeometry x="130" y="40" width="90" height="48" as="geometry" />
        </mxCell>
        <mxCell id="gmaqWhd-WiNgRrMq-LPP-13" value="首頁圖標" style="ellipse;whiteSpace=wrap;html=1;container=0;" vertex="1" parent="1">
          <mxGeometry x="40" y="40" width="90" height="48" as="geometry" />
        </mxCell>
        <mxCell id="gmaqWhd-WiNgRrMq-LPP-14" value="作者圖片" style="ellipse;whiteSpace=wrap;html=1;aspect=fixed;container=0;" vertex="1" parent="1">
          <mxGeometry x="44.25" y="97.25" width="85.75" height="85.75" as="geometry" />
        </mxCell>
        <mxCell id="gmaqWhd-WiNgRrMq-LPP-23" value="作者的話" style="rounded=0;whiteSpace=wrap;html=1;container=0;" vertex="1" parent="1">
          <mxGeometry x="142.5" y="100" width="247.5" height="61.75" as="geometry" />
        </mxCell>
        <mxCell id="gmaqWhd-WiNgRrMq-LPP-29" value="影片介紹" style="rounded=0;whiteSpace=wrap;html=1;rotation=0;container=0;" vertex="1" parent="1">
          <mxGeometry x="220" y="245" width="130" height="56" as="geometry" />
        </mxCell>
        <mxCell id="gmaqWhd-WiNgRrMq-LPP-30" value="影片封面" style="rounded=0;whiteSpace=wrap;html=1;" vertex="1" parent="1">
          <mxGeometry x="152.5" y="242" width="67.5" height="62" as="geometry" />
        </mxCell>
        <mxCell id="gmaqWhd-WiNgRrMq-LPP-38" value="首頁" style="rounded=0;whiteSpace=wrap;html=1;" vertex="1" parent="1">
          <mxGeometry x="160" y="-30" width="120" height="60" as="geometry" />
        </mxCell>
        <mxCell id="gmaqWhd-WiNgRrMq-LPP-39" value="貼圖介紹" style="rounded=0;whiteSpace=wrap;html=1;rotation=0;container=0;" vertex="1" parent="1">
          <mxGeometry x="220" y="313" width="130" height="56" as="geometry" />
        </mxCell>
        <mxCell id="gmaqWhd-WiNgRrMq-LPP-40" value="LINE封面" style="rounded=0;whiteSpace=wrap;html=1;" vertex="1" parent="1">
          <mxGeometry x="152.5" y="310" width="67.5" height="62" as="geometry" />
        </mxCell>
        <mxCell id="gmaqWhd-WiNgRrMq-LPP-41" value="" style="group" vertex="1" connectable="0" parent="1">
          <mxGeometry x="152.5" y="180" width="197.5" height="62" as="geometry" />
        </mxCell>
        <mxCell id="gmaqWhd-WiNgRrMq-LPP-15" value="漫畫介紹" style="rounded=0;whiteSpace=wrap;html=1;rotation=0;container=0;" vertex="1" parent="gmaqWhd-WiNgRrMq-LPP-41">
          <mxGeometry x="67.5" y="-7" width="130" height="56" as="geometry" />
        </mxCell>
        <mxCell id="gmaqWhd-WiNgRrMq-LPP-28" value="漫畫封面" style="rounded=0;whiteSpace=wrap;html=1;" vertex="1" parent="gmaqWhd-WiNgRrMq-LPP-41">
          <mxGeometry y="-10" width="67.5" height="62" as="geometry" />
        </mxCell>
        <mxCell id="gmaqWhd-WiNgRrMq-LPP-42" value="" style="rounded=0;whiteSpace=wrap;html=1;container=0;" vertex="1" parent="1">
          <mxGeometry x="440" y="40" width="360" height="360" as="geometry" />
        </mxCell>
        <mxCell id="gmaqWhd-WiNgRrMq-LPP-43" value="" style="rounded=0;whiteSpace=wrap;html=1;container=0;" vertex="1" parent="1">
          <mxGeometry x="440" y="40" width="360" height="48" as="geometry" />
        </mxCell>
        <mxCell id="gmaqWhd-WiNgRrMq-LPP-44" value="LINE貼圖" style="rounded=0;whiteSpace=wrap;html=1;container=0;" vertex="1" parent="1">
          <mxGeometry x="710" y="40" width="90" height="48" as="geometry" />
        </mxCell>
        <mxCell id="gmaqWhd-WiNgRrMq-LPP-45" value="影片" style="rounded=0;whiteSpace=wrap;html=1;container=0;" vertex="1" parent="1">
          <mxGeometry x="620" y="40" width="90" height="48" as="geometry" />
        </mxCell>
        <mxCell id="gmaqWhd-WiNgRrMq-LPP-46" value="四格漫畫" style="rounded=0;whiteSpace=wrap;html=1;container=0;" vertex="1" parent="1">
          <mxGeometry x="530" y="40" width="90" height="48" as="geometry" />
        </mxCell>
        <mxCell id="gmaqWhd-WiNgRrMq-LPP-47" value="首頁圖標" style="ellipse;whiteSpace=wrap;html=1;container=0;" vertex="1" parent="1">
          <mxGeometry x="440" y="40" width="90" height="48" as="geometry" />
        </mxCell>
        <mxCell id="gmaqWhd-WiNgRrMq-LPP-49" value="漫畫介紹" style="rounded=0;whiteSpace=wrap;html=1;container=0;" vertex="1" parent="1">
          <mxGeometry x="590" y="138.25" width="160" height="61.75" as="geometry" />
        </mxCell>
        <mxCell id="gmaqWhd-WiNgRrMq-LPP-52" value="" style="group" vertex="1" connectable="0" parent="1">
          <mxGeometry x="440" y="380" width="360" height="20" as="geometry" />
        </mxCell>
        <mxCell id="gmaqWhd-WiNgRrMq-LPP-53" value="下一頁" style="rounded=0;whiteSpace=wrap;html=1;container=0;movable=1;resizable=1;rotatable=1;deletable=1;editable=1;locked=0;connectable=1;" vertex="1" parent="gmaqWhd-WiNgRrMq-LPP-52">
          <mxGeometry x="270" width="90" height="20" as="geometry" />
        </mxCell>
        <mxCell id="gmaqWhd-WiNgRrMq-LPP-54" value="背景調暗" style="rounded=0;whiteSpace=wrap;html=1;container=0;movable=1;resizable=1;rotatable=1;deletable=1;editable=1;locked=0;connectable=1;" vertex="1" parent="gmaqWhd-WiNgRrMq-LPP-52">
          <mxGeometry width="90" height="20" as="geometry" />
        </mxCell>
        <mxCell id="gmaqWhd-WiNgRrMq-LPP-55" value="上一頁" style="rounded=0;whiteSpace=wrap;html=1;container=0;movable=1;resizable=1;rotatable=1;deletable=1;editable=1;locked=0;connectable=1;" vertex="1" parent="gmaqWhd-WiNgRrMq-LPP-52">
          <mxGeometry x="180" width="90" height="20" as="geometry" />
        </mxCell>
        <mxCell id="gmaqWhd-WiNgRrMq-LPP-56" value="圖片縮放" style="rounded=0;whiteSpace=wrap;html=1;container=0;movable=1;resizable=1;rotatable=1;deletable=1;editable=1;locked=0;connectable=1;" vertex="1" parent="gmaqWhd-WiNgRrMq-LPP-52">
          <mxGeometry x="90" width="90" height="20" as="geometry" />
        </mxCell>
        <mxCell id="gmaqWhd-WiNgRrMq-LPP-57" value="四格漫畫" style="rounded=0;whiteSpace=wrap;html=1;" vertex="1" parent="1">
          <mxGeometry x="560" y="-30" width="120" height="60" as="geometry" />
        </mxCell>
        <mxCell id="gmaqWhd-WiNgRrMq-LPP-61" value="漫畫簡介" style="rounded=0;whiteSpace=wrap;html=1;rotation=0;container=0;" vertex="1" parent="1">
          <mxGeometry x="567.5" y="200" width="182.5" height="62" as="geometry" />
        </mxCell>
        <mxCell id="gmaqWhd-WiNgRrMq-LPP-62" value="漫畫集數&lt;br&gt;&lt;br&gt;圖片" style="rounded=0;whiteSpace=wrap;html=1;" vertex="1" parent="1">
          <mxGeometry x="500" y="200" width="67.5" height="62" as="geometry" />
        </mxCell>
        <mxCell id="gmaqWhd-WiNgRrMq-LPP-48" value="漫畫封面" style="ellipse;whiteSpace=wrap;html=1;aspect=fixed;container=0;" vertex="1" parent="1">
          <mxGeometry x="504.25" y="120" width="80" height="80" as="geometry" />
        </mxCell>
        <mxCell id="gmaqWhd-WiNgRrMq-LPP-63" value="漫畫簡介" style="rounded=0;whiteSpace=wrap;html=1;rotation=0;container=0;" vertex="1" parent="1">
          <mxGeometry x="567.5" y="262" width="182.5" height="62" as="geometry" />
        </mxCell>
        <mxCell id="gmaqWhd-WiNgRrMq-LPP-64" value="漫畫集數&lt;br&gt;&lt;br&gt;圖片" style="rounded=0;whiteSpace=wrap;html=1;" vertex="1" parent="1">
          <mxGeometry x="500" y="262" width="67.5" height="62" as="geometry" />
        </mxCell>
        <mxCell id="gmaqWhd-WiNgRrMq-LPP-67" value="" style="rounded=0;whiteSpace=wrap;html=1;container=0;" vertex="1" parent="1">
          <mxGeometry x="40" y="510" width="360" height="360" as="geometry" />
        </mxCell>
        <mxCell id="gmaqWhd-WiNgRrMq-LPP-68" value="" style="rounded=0;whiteSpace=wrap;html=1;container=0;" vertex="1" parent="1">
          <mxGeometry x="40" y="510" width="360" height="48" as="geometry" />
        </mxCell>
        <mxCell id="gmaqWhd-WiNgRrMq-LPP-69" value="LINE貼圖" style="rounded=0;whiteSpace=wrap;html=1;container=0;" vertex="1" parent="1">
          <mxGeometry x="310" y="510" width="90" height="48" as="geometry" />
        </mxCell>
        <mxCell id="gmaqWhd-WiNgRrMq-LPP-70" value="影片" style="rounded=0;whiteSpace=wrap;html=1;container=0;" vertex="1" parent="1">
          <mxGeometry x="220" y="510" width="90" height="48" as="geometry" />
        </mxCell>
        <mxCell id="gmaqWhd-WiNgRrMq-LPP-71" value="四格漫畫" style="rounded=0;whiteSpace=wrap;html=1;container=0;" vertex="1" parent="1">
          <mxGeometry x="130" y="510" width="90" height="48" as="geometry" />
        </mxCell>
        <mxCell id="gmaqWhd-WiNgRrMq-LPP-72" value="首頁圖標" style="ellipse;whiteSpace=wrap;html=1;container=0;" vertex="1" parent="1">
          <mxGeometry x="40" y="510" width="90" height="48" as="geometry" />
        </mxCell>
        <mxCell id="gmaqWhd-WiNgRrMq-LPP-73" value="作者圖片" style="ellipse;whiteSpace=wrap;html=1;aspect=fixed;container=0;" vertex="1" parent="1">
          <mxGeometry x="56.75" y="670" width="85.75" height="85.75" as="geometry" />
        </mxCell>
        <mxCell id="gmaqWhd-WiNgRrMq-LPP-82" value="影片" style="rounded=0;whiteSpace=wrap;html=1;" vertex="1" parent="1">
          <mxGeometry x="160" y="440" width="120" height="60" as="geometry" />
        </mxCell>
        <mxCell id="gmaqWhd-WiNgRrMq-LPP-88" value="嵌入式影片" style="rounded=0;whiteSpace=wrap;html=1;" vertex="1" parent="1">
          <mxGeometry x="172.5" y="640" width="187.5" height="160" as="geometry" />
        </mxCell>
        <mxCell id="gmaqWhd-WiNgRrMq-LPP-89" value="影片標題" style="rounded=0;whiteSpace=wrap;html=1;" vertex="1" parent="1">
          <mxGeometry x="172" y="580" width="188" height="60" as="geometry" />
        </mxCell>
        <mxCell id="gmaqWhd-WiNgRrMq-LPP-90" value="頁尾：facebook LINE Youtube 巴哈" style="rounded=0;whiteSpace=wrap;html=1;" vertex="1" parent="1">
          <mxGeometry x="40" y="380" width="360" height="20" as="geometry" />
        </mxCell>
        <mxCell id="gmaqWhd-WiNgRrMq-LPP-92" value="頁尾：facebook LINE Youtube 巴哈" style="rounded=0;whiteSpace=wrap;html=1;" vertex="1" parent="1">
          <mxGeometry x="40" y="850" width="360" height="20" as="geometry" />
        </mxCell>
        <mxCell id="gmaqWhd-WiNgRrMq-LPP-93" value="" style="rounded=0;whiteSpace=wrap;html=1;container=0;" vertex="1" parent="1">
          <mxGeometry x="440" y="510" width="360" height="360" as="geometry" />
        </mxCell>
        <mxCell id="gmaqWhd-WiNgRrMq-LPP-94" value="" style="rounded=0;whiteSpace=wrap;html=1;container=0;" vertex="1" parent="1">
          <mxGeometry x="440" y="510" width="360" height="48" as="geometry" />
        </mxCell>
        <mxCell id="gmaqWhd-WiNgRrMq-LPP-95" value="LINE貼圖" style="rounded=0;whiteSpace=wrap;html=1;container=0;" vertex="1" parent="1">
          <mxGeometry x="710" y="510" width="90" height="48" as="geometry" />
        </mxCell>
        <mxCell id="gmaqWhd-WiNgRrMq-LPP-96" value="影片" style="rounded=0;whiteSpace=wrap;html=1;container=0;" vertex="1" parent="1">
          <mxGeometry x="620" y="510" width="90" height="48" as="geometry" />
        </mxCell>
        <mxCell id="gmaqWhd-WiNgRrMq-LPP-97" value="四格漫畫" style="rounded=0;whiteSpace=wrap;html=1;container=0;" vertex="1" parent="1">
          <mxGeometry x="530" y="510" width="90" height="48" as="geometry" />
        </mxCell>
        <mxCell id="gmaqWhd-WiNgRrMq-LPP-98" value="首頁圖標" style="ellipse;whiteSpace=wrap;html=1;container=0;" vertex="1" parent="1">
          <mxGeometry x="440" y="510" width="90" height="48" as="geometry" />
        </mxCell>
        <mxCell id="gmaqWhd-WiNgRrMq-LPP-99" value="作者圖片" style="ellipse;whiteSpace=wrap;html=1;aspect=fixed;container=0;" vertex="1" parent="1">
          <mxGeometry x="588.56" y="577.13" width="62.87" height="62.87" as="geometry" />
        </mxCell>
        <mxCell id="gmaqWhd-WiNgRrMq-LPP-100" value="LINE貼圖" style="rounded=0;whiteSpace=wrap;html=1;" vertex="1" parent="1">
          <mxGeometry x="560" y="440" width="120" height="60" as="geometry" />
        </mxCell>
        <mxCell id="gmaqWhd-WiNgRrMq-LPP-103" value="頁尾：facebook LINE Youtube 巴哈" style="rounded=0;whiteSpace=wrap;html=1;" vertex="1" parent="1">
          <mxGeometry x="440" y="850" width="360" height="20" as="geometry" />
        </mxCell>
        <mxCell id="gmaqWhd-WiNgRrMq-LPP-104" value="貼圖1" style="rounded=0;whiteSpace=wrap;html=1;" vertex="1" parent="1">
          <mxGeometry x="469.99" y="640" width="300" height="130" as="geometry" />
        </mxCell>
        <mxCell id="gmaqWhd-WiNgRrMq-LPP-105" value="貼圖標題" style="rounded=0;whiteSpace=wrap;html=1;" vertex="1" parent="1">
          <mxGeometry x="469.99" y="640" width="300" height="30" as="geometry" />
        </mxCell>
      </root>
    </mxGraphModel>
  </diagram>
</mxfile>
